<svg width="394" height="113" viewBox="0 0 394 113" fill="none" xmlns="http://www.w3.org/2000/svg">
<path d="M24.5235 88.104C21.5795 88.104 18.8755 87.864 16.4115 87.384C13.9795 86.904 11.8035 86.312 9.8835 85.608C7.9635 84.904 6.3635 84.2 5.0835 83.496L4.2675 75.576C6.7315 77.048 9.6275 78.344 12.9555 79.464C16.3155 80.552 19.9635 81.096 23.8995 81.096C28.6355 81.096 32.1395 80.264 34.4115 78.6C36.6835 76.904 37.8195 74.376 37.8195 71.016V70.248C37.8195 68.04 37.3715 66.232 36.4755 64.824C35.5795 63.416 34.0595 62.232 31.9155 61.272C29.8035 60.312 26.9235 59.416 23.2755 58.584C18.6675 57.496 14.9715 56.216 12.1875 54.744C9.4355 53.24 7.4355 51.368 6.1875 49.128C4.9715 46.888 4.3635 44.104 4.3635 40.776V40.344C4.3635 35.32 6.0115 31.448 9.3075 28.728C12.6035 25.976 17.5955 24.6 24.2835 24.6C28.6675 24.6 32.3955 25.048 35.4675 25.944C38.5715 26.84 41.0995 27.832 43.0515 28.92L43.7715 36.216C41.4995 34.872 38.8435 33.736 35.8035 32.808C32.7955 31.848 29.3395 31.368 25.4355 31.368C22.3315 31.368 19.8195 31.736 17.8995 32.472C15.9795 33.208 14.5875 34.264 13.7235 35.64C12.8595 37.016 12.4275 38.68 12.4275 40.632V40.824C12.4275 42.808 12.8435 44.504 13.6755 45.912C14.5395 47.32 16.0275 48.536 18.1395 49.56C20.2835 50.584 23.3235 51.576 27.2595 52.536C31.7715 53.592 35.3875 54.808 38.1075 56.184C40.8275 57.56 42.7955 59.352 44.0115 61.56C45.2595 63.768 45.8835 66.648 45.8835 70.2V71.208C45.8835 76.744 44.0915 80.952 40.5075 83.832C36.9555 86.68 31.6275 88.104 24.5235 88.104ZM78.6728 88.152C70.9288 88.152 65.0408 86.024 61.0088 81.768C56.9768 77.48 54.9608 71.352 54.9608 63.384V49.224C54.9608 41.288 56.9768 35.192 61.0088 30.936C65.0408 26.648 70.9288 24.504 78.6728 24.504C86.4168 24.504 92.3048 26.648 96.3368 30.936C100.369 35.192 102.385 41.288 102.385 49.224V63.384C102.385 71.352 100.369 77.48 96.3368 81.768C92.3048 86.024 86.4168 88.152 78.6728 88.152ZM78.6728 81.48C83.8568 81.48 87.7608 79.944 90.3848 76.872C93.0088 73.768 94.3208 69.384 94.3208 63.72V48.888C94.3208 43.224 93.0088 38.856 90.3848 35.784C87.7608 32.712 83.8568 31.176 78.6728 31.176C73.5208 31.176 69.6328 32.712 67.0088 35.784C64.3848 38.856 63.0728 43.224 63.0728 48.888V63.72C63.0728 69.384 64.3848 73.768 67.0088 76.872C69.6328 79.944 73.5208 81.48 78.6728 81.48ZM126.782 25.656L151.694 78.456H152.27L151.934 51.672V25.656H159.71V87H147.902L122.702 33.768H122.126L122.462 61.8V87H114.686V25.656H126.782ZM195.673 88.152C187.929 88.152 182.041 86.024 178.009 81.768C173.977 77.48 171.961 71.352 171.961 63.384V49.224C171.961 41.288 173.977 35.192 178.009 30.936C182.041 26.648 187.929 24.504 195.673 24.504C203.417 24.504 209.305 26.648 213.337 30.936C217.369 35.192 219.385 41.288 219.385 49.224V63.384C219.385 71.352 217.369 77.48 213.337 81.768C209.305 86.024 203.417 88.152 195.673 88.152ZM195.673 81.48C200.857 81.48 204.761 79.944 207.385 76.872C210.009 73.768 211.321 69.384 211.321 63.72V48.888C211.321 43.224 210.009 38.856 207.385 35.784C204.761 32.712 200.857 31.176 195.673 31.176C190.521 31.176 186.633 32.712 184.009 35.784C181.385 38.856 180.073 43.224 180.073 48.888V63.72C180.073 69.384 181.385 73.768 184.009 76.872C186.633 79.944 190.521 81.48 195.673 81.48ZM243.317 87V26.952H251.285V87H243.317ZM224.933 32.328V25.656H269.669V32.328H224.933Z" fill="#10C49F"/>
<path d="M298.976 26L317.648 87.344H309.296L293.216 32.048H292.064L275.936 87.344L267.632 87.344L286.256 26H298.976Z" fill="#10C49F"/>
<path d="M293 77.0943L282.608 66.0142H303.392L293 77.0943Z" fill="white"/>
<g opacity="0.5">
<path d="M355.333 41.7564C355.333 36.8283 359.328 32.8333 364.256 32.8333H365.744C370.672 32.8333 374.667 36.8283 374.667 41.7564V55.3269C374.667 60.255 370.672 64.25 365.744 64.25H364.256C359.328 64.25 355.333 60.255 355.333 55.3269V41.7564Z" fill="white"/>
<path d="M348.269 54.5833C348.269 59.0206 350.032 63.2761 353.17 66.4138C356.307 69.5514 360.563 71.3141 365 71.3141C369.437 71.3141 373.693 69.5514 376.83 66.4138C379.968 63.2761 381.731 59.0206 381.731 54.5833M365 78.75V73.9167M364.256 64.25H365.744C370.672 64.25 374.667 60.255 374.667 55.3269V41.7564C374.667 36.8283 370.672 32.8333 365.744 32.8333H364.256C359.328 32.8333 355.333 36.8283 355.333 41.7564V55.3269C355.333 60.255 359.328 64.25 364.256 64.25Z" stroke="white" stroke-width="2" stroke-linecap="round" stroke-linejoin="round"/>
</g>
</svg>
